<svg width="612" height="156" viewBox="0 0 612 156" fill="none" xmlns="http://www.w3.org/2000/svg">
  <rect x="6" y="6" width="144" height="144" rx="40" fill="#0F172A"/>
  <path d="M78 124c18-23 30-40 30-55.5C108 50.565 94.539 37 78 37S48 50.565 48 68.5C48 84 60 101 78 124Z" fill="white"/>
  <path d="M61 88V54h8.7l8.3 12 8.3-12H95v34h-8.7V70.3L79 80.9h-2.4L69.7 70.3V88H61Z" fill="#0F172A"/>
  <circle cx="78" cy="68" r="5.5" fill="#0F172A"/>
  <path d="M203.08 111V47.24H225.904V111H203.08ZM240.862 111V47.24H263.686L288.074 86.52V47.24H310.634V111H287.81L263.422 71.72V111H240.862ZM353.778 112.98C347.53 112.98 341.7 111.99 336.288 110.01C330.876 107.97 326.154 105.06 322.122 101.28C318.15 97.44 315.03 92.838 312.762 87.474C310.554 82.11 309.45 76.092 309.45 69.42C309.45 62.748 310.554 56.73 312.762 51.366C315.03 46.002 318.15 41.43 322.122 37.65C326.154 33.81 330.876 30.9 336.288 28.92C341.7 26.88 347.53 25.86 353.778 25.86C358.998 25.86 363.816 26.61 368.232 28.11C372.708 29.61 376.572 31.752 379.824 34.536C383.076 37.32 385.584 40.638 387.348 44.49L368.232 54.48C367.032 52.128 365.148 50.208 362.58 48.72C360.012 47.232 357.108 46.488 353.868 46.488C350.076 46.488 346.722 47.382 343.806 49.17C340.95 50.898 338.712 53.34 337.092 56.496C335.532 59.592 334.752 63.9 334.752 69.42C334.752 74.88 335.532 79.188 337.092 82.344C338.712 85.44 340.95 87.882 343.806 89.67C346.722 91.398 350.076 92.262 353.868 92.262C357.108 92.262 360.012 91.518 362.58 90.03C365.148 88.542 367.032 86.622 368.232 84.27L387.348 94.26C385.584 98.112 383.076 101.43 379.824 104.214C376.572 106.998 372.708 109.14 368.232 110.64C363.816 112.2 358.998 112.98 353.778 112.98ZM395.415 111V47.24H442.755V67.076H418.239V71.72H439.839V89.82H418.239V91.164H443.295V111H395.415ZM472.84 111L488.5 47.24H518.2L533.86 111H511.48L509.5 100.02H497.54L495.56 111H472.84ZM500.6 83.73H506.44L503.52 66.17L500.6 83.73ZM540.965 111V47.24H568.995C575.127 47.24 580.431 48.32 584.907 50.48C589.443 52.58 592.935 55.64 595.383 59.66C597.891 63.68 599.145 68.474 599.145 74.042C599.145 79.61 597.891 84.404 595.383 88.424C592.935 92.444 589.443 95.534 584.907 97.694C580.431 99.854 575.127 100.934 568.995 100.934H563.789V111H540.965ZM563.789 82.744H566.745C568.989 82.744 570.723 81.994 571.947 80.494C573.231 78.994 573.873 76.844 573.873 74.042C573.873 71.24 573.231 69.09 571.947 67.59C570.723 66.09 568.989 65.34 566.745 65.34H563.789V82.744Z" fill="#0F172A"/>
</svg>
